<svg width="48" height="48" viewBox="0 0 48 48" fill="none" xmlns="http://www.w3.org/2000/svg">
<path d="M23.95 43.65L21.05 41.05C17.4167 37.7167 14.425 34.8417 12.075 32.425C9.725 30.0083 7.85 27.8417 6.45 25.925C5.05 24.0083 4.075 22.2583 3.525 20.675C2.975 19.0917 2.7 17.4833 2.7 15.85C2.7 12.4833 3.825 9.66667 6.075 7.4C8.325 5.13333 11.1167 4 14.45 4C16.3167 4 18.05 4.4 19.65 5.2C21.25 6 22.6833 7.18333 23.95 8.75C25.4167 7.08333 26.9167 5.875 28.45 5.125C29.9833 4.375 31.65 4 33.45 4C36.8167 4 39.6333 5.13333 41.9 7.4C44.1667 9.66667 45.3 12.4833 45.3 15.85C45.3 17.4833 45.025 19.0833 44.475 20.65C43.925 22.2167 42.95 23.9583 41.55 25.875C40.15 27.7917 38.2667 29.9667 35.9 32.4C33.5333 34.8333 30.5333 37.7167 26.9 41.05L23.95 43.65Z" fill="white"/>
</svg>
