<svg width="141" height="199" viewBox="0 0 141 199" fill="none" xmlns="http://www.w3.org/2000/svg">
<path fill-rule="evenodd" clip-rule="evenodd" d="M79.403 62.8051C80.1841 62.0241 80.1841 60.7577 79.403 59.9767L72.4142 52.9878C71.6331 52.2068 70.3668 52.2068 69.5858 52.9878L63.0944 59.4792C62.3134 60.2602 62.3134 61.5266 63.0944 62.3076L63.3346 62.5477C64.1156 63.3288 65.3819 63.3288 66.163 62.5477L69.2965 59.4143C70.0775 58.6332 71.3438 58.6332 72.1249 59.4143L76.0452 63.3345C76.8262 64.1156 78.0926 64.1156 78.8736 63.3345L79.403 62.8051ZM63.3345 93.6604C64.1156 92.8794 65.3819 92.8794 66.163 93.6604L70.0833 97.5807C70.8643 98.3618 72.1306 98.3618 72.9117 97.5807L76.0452 94.4472C76.8262 93.6662 78.0926 93.6662 78.8736 94.4472L94.5122 110.086C95.2932 110.867 95.2932 112.133 94.5122 112.914L72.4142 135.012C71.6331 135.793 70.3668 135.793 69.5858 135.012L47.1985 112.625C46.4174 111.844 46.4174 110.578 47.1985 109.797L63.3345 93.6604ZM49.1924 79.5183C49.9735 78.7373 49.9735 77.4709 49.1924 76.6899L48.9523 76.4498C48.1712 75.6687 46.9049 75.6687 46.1239 76.4498L29.9878 92.5858C29.2067 93.3669 29.2067 94.6332 29.9878 95.4142L30.2279 95.6544C31.009 96.4354 32.2753 96.4354 33.0564 95.6544L49.1924 79.5183ZM110.516 62.8051C109.735 62.0241 109.735 60.7577 110.516 59.9767L119.581 50.9117C120.362 50.1306 120.362 48.8643 119.581 48.0833L106.853 35.3553L85.6396 14.1421L72.9117 1.41421C72.1306 0.633159 70.8643 0.633158 70.0833 1.41421L57.3553 14.1421L36.1421 35.3553L23.4142 48.0833C22.6332 48.8643 22.6332 50.1306 23.4142 50.9117L31.9817 59.4792C32.7628 60.2602 32.7628 61.5266 31.9817 62.3076L14.4314 79.8579L1.70352 92.5858C0.922472 93.3669 0.922472 94.6332 1.70352 95.4142L14.4314 108.142L16.0858 109.797C16.8668 110.578 16.8668 111.844 16.0858 112.625L14.1421 114.569L1.41421 127.297C0.633165 128.078 0.633165 129.344 1.41421 130.125L14.1421 142.853L56.5685 185.279L69.2965 198.007C70.0775 198.788 71.3438 198.788 72.1249 198.007L84.8528 185.279L127.279 142.853L140.007 130.125C140.788 129.344 140.788 128.078 140.007 127.297L127.279 114.569L125.625 112.914C124.844 112.133 124.844 110.867 125.625 110.086L127.569 108.142L140.296 95.4142C141.077 94.6332 141.077 93.3669 140.296 92.5858L127.569 79.8579L110.516 62.8051ZM93.5452 76.9472C94.3262 76.1662 95.5926 76.1662 96.3736 76.9472L112.012 92.5858C112.793 93.3669 112.793 94.6332 112.012 95.4142L111.483 95.9437C110.702 96.7247 109.435 96.7247 108.654 95.9437L93.0157 80.3051C92.2347 79.5241 92.2347 78.2577 93.0157 77.4767L93.5452 76.9472ZM111.723 130.125C112.504 129.344 112.504 128.078 111.723 127.297L111.483 127.056C110.702 126.275 109.435 126.275 108.654 127.056L85.1421 150.569L72.4142 163.296C71.6331 164.078 70.3668 164.078 69.5858 163.296L56.8578 150.569L33.0564 126.767C32.2753 125.986 31.009 125.986 30.2279 126.767L29.6985 127.297C28.9174 128.078 28.9174 129.344 29.6985 130.125L69.2965 169.723C70.0775 170.504 71.3438 170.504 72.1249 169.723L111.723 130.125Z" fill="url(#paint0_linear_31_218)"/>
<defs>
<linearGradient id="paint0_linear_31_218" x1="70.8553" y1="0" x2="70.8553" y2="199.421" gradientUnits="userSpaceOnUse">
<stop stop-color="#FF2846"/>
<stop offset="1" stop-color="#FEDF25"/>
</linearGradient>
</defs>
</svg>
