<svg width="20" height="20" viewBox="0 0 20 20" fill="none" xmlns="http://www.w3.org/2000/svg">
<path d="M12.6055 5.01562L16.5234 9.11719C16.7578 9.34375 16.875 9.65234 16.875 9.99219C16.875 10.332 16.7578 10.6367 16.5234 10.8672L12.6055 14.9844C12.1406 15.4727 11.3828 15.4727 10.918 14.9844C10.4531 14.4961 10.4531 13.707 10.918 13.2188L12.8008 11.25H4.32422C3.66016 11.25 3.125 10.6914 3.125 10C3.125 9.30859 3.66016 8.75 4.32031 8.75H12.7969L10.9141 6.78125C10.4492 6.29297 10.4492 5.50391 10.9141 5.01562C11.3828 4.52734 12.1367 4.52734 12.6055 5.01562Z" fill="#774801"/>
</svg>
