<svg width="397" height="134" viewBox="0 0 397 134" fill="none" xmlns="http://www.w3.org/2000/svg">
<path d="M108.842 48.6493L45.8649 108.096L25.8712 23.8329L108.842 48.6493Z" fill="url(#paint0_linear_18_138)"/>
<path d="M121.035 61.8419L58.0576 121.288L38.0639 37.0255L121.035 61.8419Z" fill="url(#paint1_linear_18_138)"/>
<path d="M52.36 81C51.144 81 50.024 80.696 49 80.088C48.008 79.48 47.208 78.68 46.6 77.688C45.992 76.664 45.688 75.544 45.688 74.328V53.112C45.688 51.896 45.992 50.792 46.6 49.8C47.208 48.776 48.008 47.96 49 47.352C50.024 46.744 51.144 46.44 52.36 46.44H73.528C74.744 46.44 75.864 46.744 76.888 47.352C77.912 47.96 78.728 48.776 79.336 49.8C79.944 50.792 80.248 51.896 80.248 53.112V55.8H73.864V53.4C73.864 53.24 73.8 53.112 73.672 53.016C73.544 52.888 73.4 52.824 73.24 52.824H52.6C52.44 52.824 52.296 52.888 52.168 53.016C52.072 53.112 52.024 53.24 52.024 53.4V74.04C52.024 74.2 52.072 74.344 52.168 74.472C52.296 74.568 52.44 74.616 52.6 74.616H73.24C73.4 74.616 73.544 74.568 73.672 74.472C73.8 74.344 73.864 74.2 73.864 74.04V67.8H66.04V61.416H80.248V74.328C80.248 75.544 79.944 76.664 79.336 77.688C78.728 78.68 77.912 79.48 76.888 80.088C75.864 80.696 74.744 81 73.528 81H52.36ZM85.6278 81V53.112C85.6278 51.896 85.9318 50.792 86.5398 49.8C87.1478 48.776 87.9478 47.96 88.9398 47.352C89.9638 46.744 91.0838 46.44 92.2998 46.44H113.468C114.684 46.44 115.804 46.744 116.828 47.352C117.852 47.96 118.668 48.776 119.276 49.8C119.884 50.792 120.188 51.896 120.188 53.112V81H113.804V69.384H91.9638V81H85.6278ZM91.9638 63.048H113.804V53.4C113.804 53.24 113.74 53.112 113.612 53.016C113.484 52.888 113.34 52.824 113.18 52.824H92.5398C92.3798 52.824 92.2358 52.888 92.1078 53.016C92.0118 53.112 91.9638 53.24 91.9638 53.4V63.048ZM125.657 81V46.44H132.617L145.145 61.368L157.625 46.44H164.633V81H158.249V55.656L145.145 71.256L131.993 55.704V81H125.657ZM170.284 81V46.44H202.108V52.824H176.668V60.504H197.116V66.936H176.668V74.616H202.108V81H170.284ZM213.466 81C212.25 81 211.13 80.696 210.106 80.088C209.114 79.48 208.314 78.68 207.706 77.688C207.098 76.664 206.794 75.544 206.794 74.328V71.688H213.13V74.04C213.13 74.2 213.178 74.344 213.274 74.472C213.402 74.568 213.546 74.616 213.706 74.616H234.394C234.554 74.616 234.682 74.568 234.778 74.472C234.906 74.344 234.97 74.2 234.97 74.04V67.464C234.97 67.304 234.906 67.176 234.778 67.08C234.682 66.984 234.554 66.936 234.394 66.936H213.466C212.25 66.936 211.13 66.632 210.106 66.024C209.114 65.416 208.314 64.616 207.706 63.624C207.098 62.6 206.794 61.464 206.794 60.216V53.112C206.794 51.896 207.098 50.792 207.706 49.8C208.314 48.776 209.114 47.96 210.106 47.352C211.13 46.744 212.25 46.44 213.466 46.44H234.682C235.898 46.44 237.002 46.744 237.994 47.352C239.018 47.96 239.834 48.776 240.442 49.8C241.05 50.792 241.354 51.896 241.354 53.112V55.752H234.97V53.4C234.97 53.24 234.906 53.112 234.778 53.016C234.682 52.888 234.554 52.824 234.394 52.824H213.706C213.546 52.824 213.402 52.888 213.274 53.016C213.178 53.112 213.13 53.24 213.13 53.4V59.976C213.13 60.136 213.178 60.264 213.274 60.36C213.402 60.456 213.546 60.504 213.706 60.504H234.682C235.898 60.504 237.002 60.808 237.994 61.416C239.018 62.024 239.834 62.84 240.442 63.864C241.05 64.856 241.354 65.976 241.354 67.224V74.328C241.354 75.544 241.05 76.664 240.442 77.688C239.834 78.68 239.018 79.48 237.994 80.088C237.002 80.696 235.898 81 234.682 81H213.466ZM258.978 81V52.824H244.866V46.44H279.426V52.824H265.362V81H258.978ZM289.592 81C288.376 81 287.256 80.696 286.232 80.088C285.24 79.48 284.44 78.68 283.832 77.688C283.224 76.664 282.92 75.544 282.92 74.328V53.112C282.92 51.896 283.224 50.792 283.832 49.8C284.44 48.776 285.24 47.96 286.232 47.352C287.256 46.744 288.376 46.44 289.592 46.44H310.808C312.024 46.44 313.128 46.744 314.12 47.352C315.144 47.96 315.96 48.776 316.568 49.8C317.176 50.792 317.48 51.896 317.48 53.112V74.328C317.48 75.544 317.176 76.664 316.568 77.688C315.96 78.68 315.144 79.48 314.12 80.088C313.128 80.696 312.024 81 310.808 81H289.592ZM289.832 74.616H310.472C310.632 74.616 310.776 74.568 310.904 74.472C311.032 74.344 311.096 74.2 311.096 74.04V53.4C311.096 53.24 311.032 53.112 310.904 53.016C310.776 52.888 310.632 52.824 310.472 52.824H289.832C289.672 52.824 289.528 52.888 289.4 53.016C289.304 53.112 289.256 53.24 289.256 53.4V74.04C289.256 74.2 289.304 74.344 289.4 74.472C289.528 74.568 289.672 74.616 289.832 74.616ZM350.318 81L339.902 68.568H348.206L357.23 79.224V81H350.318ZM322.766 81V46.488H350.606C351.822 46.488 352.942 46.792 353.966 47.4C354.99 48.008 355.806 48.824 356.414 49.848C357.022 50.84 357.326 51.944 357.326 53.16V62.472C357.326 63.688 357.022 64.808 356.414 65.832C355.806 66.856 354.99 67.672 353.966 68.28C352.942 68.856 351.822 69.144 350.606 69.144L329.102 69.192V81H322.766ZM329.678 62.76H350.318C350.478 62.76 350.622 62.712 350.75 62.616C350.878 62.52 350.942 62.392 350.942 62.232V53.4C350.942 53.24 350.878 53.112 350.75 53.016C350.622 52.888 350.478 52.824 350.318 52.824H329.678C329.518 52.824 329.374 52.888 329.246 53.016C329.15 53.112 329.102 53.24 329.102 53.4V62.232C329.102 62.392 329.15 62.52 329.246 62.616C329.374 62.712 329.518 62.76 329.678 62.76ZM362.472 81V46.44H394.296V52.824H368.856V60.504H389.304V66.936H368.856V74.616H394.296V81H362.472Z" fill="white"/>
<defs>
<linearGradient id="paint0_linear_18_138" x1="24.6927" y1="24.1926" x2="82.6927" y2="74.1926" gradientUnits="userSpaceOnUse">
<stop stop-color="#CF9B14"/>
<stop offset="1" stop-color="#FFD600"/>
</linearGradient>
<linearGradient id="paint1_linear_18_138" x1="97.3403" y1="31.2867" x2="35.2795" y2="133.578" gradientUnits="userSpaceOnUse">
<stop stop-color="#F3BA27"/>
<stop offset="1" stop-color="#FFE600"/>
</linearGradient>
</defs>
</svg>
