<svg width="21" height="20" viewBox="0 0 21 20" fill="none" xmlns="http://www.w3.org/2000/svg">
<g clip-path="url(#clip0_34_5)">
<path d="M19.7142 6.10795C19.2106 4.91709 18.4897 3.84764 17.5715 2.92936C16.6533 2.01105 15.584 1.29002 14.3931 0.78627C13.16 0.264609 11.8504 7.8125e-05 10.5 0C9.15031 0 7.84072 0.264453 6.60764 0.785996C5.41684 1.28965 4.34746 2.01059 3.42922 2.92877C2.51098 3.84695 1.78998 4.91629 1.28625 6.10705C0.764609 7.34012 0.500078 8.64971 0.5 9.99941C0.499922 11.3492 0.764316 12.6589 1.28582 13.8921C1.78943 15.0829 2.51035 16.1524 3.42853 17.0706C4.34672 17.989 5.41607 18.71 6.60689 19.2138C7.84002 19.7354 9.14967 19.9999 10.4999 20H10.5001C11.8498 20 13.1593 19.7356 14.3924 19.214C15.5832 18.7104 16.6526 17.9894 17.5708 17.0713C18.489 16.1531 19.2101 15.0838 19.7138 13.893C20.2354 12.6599 20.4999 11.3503 20.5 10.0006C20.5001 8.6508 20.2357 7.34113 19.7142 6.10795ZM10.5001 19.0689H10.4995C8.07711 19.0688 5.79975 18.1253 4.08693 16.4123C2.37416 14.6993 1.43096 12.4219 1.43109 9.99947C1.43139 4.99916 5.49969 0.931113 10.5005 0.931113C12.9229 0.93125 15.2003 1.87471 16.913 3.5877C18.6258 5.3007 19.569 7.57814 19.5689 10.0005C19.5686 15.0008 15.5004 19.0689 10.5001 19.0689Z" fill="#075E54"/>
<path d="M14.6735 5.80898C13.5862 4.68967 12.0829 4.08203 10.5479 4.08203C7.28574 4.08203 4.66334 6.73643 4.69535 9.96658C4.69535 10.9899 4.98316 11.9815 5.46289 12.8769L4.63135 15.9152L7.73361 15.1156C8.59699 15.5954 9.55646 15.8193 10.5159 15.8193C13.746 15.8193 16.3686 13.1649 16.3686 9.93461C16.3686 8.36752 15.7608 6.89635 14.6735 5.80898ZM10.5479 14.8277C9.68438 14.8277 8.82092 14.6041 8.08525 14.1562L7.8935 14.0603L6.0385 14.5401L6.5182 12.7171L6.39033 12.5253C4.98316 10.2544 5.6548 7.2482 7.95736 5.84107C10.2601 4.43391 13.2343 5.10555 14.6415 7.40811C16.0488 9.71086 15.3771 12.6852 13.0745 14.0922C12.3389 14.5719 11.4433 14.8277 10.5479 14.8277ZM13.3622 11.2779L13.0105 11.118C13.0105 11.118 12.4988 10.894 12.179 10.7341C12.147 10.7341 12.115 10.7023 12.0829 10.7023C11.9871 10.7023 11.923 10.7341 11.8592 10.7662C11.8592 10.7662 11.8271 10.7981 11.3795 11.3097C11.3474 11.3737 11.2834 11.4059 11.2195 11.4059H11.1875C11.1555 11.4059 11.0916 11.3738 11.0596 11.3419L10.8997 11.2779C10.5479 11.118 10.228 10.9262 9.97227 10.6701C9.90828 10.6064 9.81234 10.5423 9.74832 10.4784C9.52438 10.2544 9.30059 9.99861 9.14072 9.71086L9.10867 9.6468C9.07668 9.61478 9.07668 9.58291 9.04469 9.51891C9.04469 9.45488 9.04469 9.39102 9.07672 9.35898C9.07672 9.35898 9.20463 9.19906 9.30062 9.10318C9.36451 9.03916 9.39654 8.94326 9.46055 8.87924C9.52441 8.78338 9.55643 8.65529 9.52441 8.55945C9.49258 8.39953 9.10873 7.53598 9.01287 7.3442C8.94885 7.24816 8.88477 7.21613 8.78895 7.18428H8.69307C8.62904 7.18428 8.53314 7.18428 8.43713 7.18428C8.37324 7.18428 8.30922 7.21613 8.24521 7.21613L8.21336 7.24816C8.14936 7.28018 8.08527 7.3442 8.02143 7.37604C7.95742 7.44008 7.92539 7.50412 7.86152 7.56797C7.63758 7.85576 7.50969 8.2076 7.50969 8.55945C7.50969 8.81521 7.57369 9.07117 7.66957 9.29494L7.70162 9.39098C7.98941 9.99857 8.37326 10.5423 8.8848 11.022L9.01291 11.1498C9.10875 11.246 9.20467 11.3097 9.26871 11.4059C9.94035 11.9815 10.7079 12.3972 11.5714 12.6211C11.6673 12.653 11.7952 12.653 11.8912 12.6851C11.9871 12.6851 12.115 12.6851 12.2111 12.6851C12.371 12.6851 12.5627 12.6211 12.6908 12.5571C12.7866 12.493 12.8507 12.493 12.9146 12.429L12.9786 12.3653C13.0424 12.3013 13.1065 12.2691 13.1705 12.2054C13.2344 12.1413 13.2984 12.0773 13.3304 12.0133C13.3943 11.8855 13.4263 11.7256 13.4583 11.5657C13.4583 11.5017 13.4583 11.4058 13.4583 11.3418C13.4583 11.3419 13.4263 11.3097 13.3622 11.2779Z" fill="#075E54"/>
</g>
<defs>
<clipPath id="clip0_34_5">
<rect width="20" height="20" fill="white" transform="translate(0.5)"/>
</clipPath>
</defs>
</svg>
